<?xml version="1.0" encoding="UTF-8"?>
<svg version="1.1" xmlns="http://www.w3.org/2000/svg" width="32" height="32">
<path d="M0 0 C10.56 0 21.12 0 32 0 C32 10.56 32 21.12 32 32 C21.44 32 10.88 32 0 32 C0 21.44 0 10.88 0 0 Z " fill="#373361" transform="translate(0,0)"/>
<path d="M0 0 C10.56 0 21.12 0 32 0 C32 10.56 32 21.12 32 32 C21.44 32 10.88 32 0 32 C0 21.44 0 10.88 0 0 Z M3 3 C3.185625 4.134375 3.37125 5.26875 3.5625 6.4375 C3.98852733 9.65258628 3.8859038 12.36523103 3.375 15.5625 C2.76134692 20.36392076 3.37023379 22.89099029 6 27 C11.06211205 30.13850947 16.10095769 30.9545723 22 30 C25.87353653 28.16887364 27.52413934 26.99498138 29.375 23.125 C30.34848737 18.25756316 30.71609533 15.3771064 28.375 10.875 C25.62112341 7.54135991 23.96337851 5.80785686 20 4 C16.64562057 3.7786026 13.38140246 3.8122239 10.0234375 3.95703125 C7.40279573 3.99427551 5.4732618 3.79023731 3 3 Z " fill="#373361" transform="translate(0,0)"/>
<path d="M0 0 C0.79277344 0.25330078 0.79277344 0.25330078 1.6015625 0.51171875 C4.59819041 1.12178143 7.32171653 0.9441684 10.375 0.8125 C15.81303065 0.7820519 18.95425307 1.05799017 23 5 C25.56572761 7.76309127 26.91301884 9.65921728 27.16015625 13.46875 C26.91523333 17.53088616 26.59677934 20.20429422 24.125 23.5 C19.01996422 27.10355467 16.13927616 27.63228426 10 27 C5.84054357 26.12348619 3.480355 24.69051032 1 21.125 C-0.64357269 16.50121417 0.20111683 11.76323114 0.7734375 6.98828125 C0.97779628 4.29285939 0.85024471 2.53225055 0 0 Z M6 7 C3.36451873 11.08953991 2.54920487 14.15395236 3 19 C4.89492965 20.89492965 8.10234753 20.17422288 10.625 20.1875 C15.84209323 20.16088218 20.13500545 19.85333126 25 18 C25.43395539 13.66044609 25.25919797 11.45150614 23.0625 7.625 C20.17369027 4.55512527 17.26831203 4.01387228 13.1484375 3.8359375 C9.97360901 4.07837895 8.35146659 4.85601576 6 7 Z " fill="#222034" transform="translate(3,3)"/>
<path d="M0 0 C10.56 0 21.12 0 32 0 C32 2.31 32 4.62 32 7 C29.875 7.75 29.875 7.75 27 8 C25.7625 7.0409375 25.7625 7.0409375 24.5 6.0625 C20.46449014 2.99131977 15.99182166 3.82593862 11.1484375 3.9921875 C7.33803456 4.00164259 4.54392831 3.318671 1 2 C1.515625 2.928125 2.03125 3.85625 2.5625 4.8125 C4 8 4 8 3 11 C2.01 11 1.02 11 0 11 C0 7.37 0 3.74 0 0 Z " fill="#0122F3" transform="translate(0,0)"/>
<path d="M0 0 C2.475 0.99 2.475 0.99 5 2 C5 2.66 5 3.32 5 4 C11.80788246 6.42058043 19.34726385 7.60720391 26.125 4.625 C28.09669252 3.12579415 28.09669252 3.12579415 29 1 C29.99 1 30.98 1 32 1 C32 3.31 32 5.62 32 8 C21.44 8 10.88 8 0 8 C0 5.36 0 2.72 0 0 Z " fill="#03E4DF" transform="translate(0,24)"/>
<path d="M0 0 C0.99 0.33 1.98 0.66 3 1 C3.94921875 3.72265625 3.94921875 3.72265625 4.6875 7.0625 C4.93886719 8.16722656 5.19023437 9.27195312 5.44921875 10.41015625 C5.63097656 11.26480469 5.81273437 12.11945312 6 13 C4.35 13 2.7 13 1 13 C0.63901937 11.02206479 0.28638652 9.04260427 -0.0625 7.0625 C-0.25972656 5.96035156 -0.45695313 4.85820312 -0.66015625 3.72265625 C-0.77230469 2.82417969 -0.88445313 1.92570313 -1 1 C-0.67 0.67 -0.34 0.34 0 0 Z " fill="#CC722F" transform="translate(12,9)"/>
<path d="M0 0 C1.32 0 2.64 0 4 0 C4.50512244 1.60256108 5.00391627 3.20711792 5.5 4.8125 C5.7784375 5.70582031 6.056875 6.59914063 6.34375 7.51953125 C7 10 7 10 7 13 C6.01 13.33 5.02 13.66 4 14 C2.68 9.38 1.36 4.76 0 0 Z " fill="#BC472D" transform="translate(15,8)"/>
<path d="M0 0 C3.76914404 1.88457202 5.00474006 2.5082951 7 6 C7.1875 8.75 7.1875 8.75 7 11 C5.68 11.33 4.36 11.66 3 12 C2.01 8.04 1.02 4.08 0 0 Z " fill="#D0762E" transform="translate(20,9)"/>
<path d="M0 0 C0.99 0 1.98 0 3 0 C2.98839844 0.67546875 2.97679687 1.3509375 2.96484375 2.046875 C2.95582031 2.93890625 2.94679687 3.8309375 2.9375 4.75 C2.92589844 5.63171875 2.91429687 6.5134375 2.90234375 7.421875 C2.99173802 9.7818838 3.33087179 11.74498524 4 14 C2.68 13.67 1.36 13.34 0 13 C0 8.71 0 4.42 0 0 Z " fill="#3A3EBC" transform="translate(0,11)"/>
<path d="M0 0 C0.66 0.33 1.32 0.66 2 1 C2.4140625 3.06640625 2.4140625 3.06640625 2.625 5.5625 C2.69976563 6.38878906 2.77453125 7.21507812 2.8515625 8.06640625 C2.90054687 8.70449219 2.94953125 9.34257812 3 10 C1.35 9.67 -0.3 9.34 -2 9 C-1.125 2.25 -1.125 2.25 0 0 Z " fill="#B9492F" transform="translate(9,12)"/>
<path d="M0 0 C0 5.94 0 11.88 0 18 C-0.66 18 -1.32 18 -2 18 C-1.96519531 16.78763672 -1.96519531 16.78763672 -1.9296875 15.55078125 C-1.91164063 14.48214844 -1.89359375 13.41351563 -1.875 12.3125 C-1.85179687 11.25675781 -1.82859375 10.20101563 -1.8046875 9.11328125 C-2.00141271 5.97748141 -2.66942346 3.82354627 -4 1 C-2 0 -2 0 0 0 Z " fill="#3B42B8" transform="translate(32,7)"/>
<path d="M0 0 C1.32 0 2.64 0 4 0 C4.33 1.98 4.66 3.96 5 6 C3.68 5.67 2.36 5.34 1 5 C0.67 3.35 0.34 1.7 0 0 Z " fill="#F6DE33" transform="translate(15,8)"/>
</svg>
